M48
METRIC,LZ,000.000
;FILE_FORMAT=3:3
;TYPE=PLATED
;Layer: PTH_Through
;EasyEDA v6.5.54, 2026-05-03 23:53:57
;ac25f32082a5447089b6658e9d52d730,342c09687d4c4aa888aeea412d69bad7,10
;Gerber Generator version 0.2
;Holesize 1 = 0.800 mm
T01C0.800
;Holesize 2 = 1.000 mm
T02C1.000
;Holesize 3 = 1.016 mm
T03C1.016
;Holesize 4 = 1.101 mm
T04C1.101
;Holesize 5 = 1.200 mm
T05C1.200
;Holesize 6 = 2.500 mm
T06C2.500
;Holesize 7 = 4.301 mm
T07C4.301
%
G05
G90
T01
X151000Y-082750G85X149000Y-082750
X152540Y-086150G85X152540Y-084350
X147460Y-086150G85X147460Y-084350
T02
X041110Y-068110G85X041110Y-068110
X056350Y-068110G85X056350Y-068110
X041110Y-085890G85X041110Y-085890
X056350Y-085890G85X056350Y-085890
X075870Y-063270
X078410Y-063270
X080950Y-063270
X083490Y-063270
X086030Y-063270
X088570Y-063270
X091110Y-063270
X093650Y-063270
X096190Y-063270
X098730Y-063270
X101270Y-063270
X103810Y-063270
X106350Y-063270
X108890Y-063270
X111430Y-063270
X113970Y-063270
X116510Y-063270
X119050Y-063270
X121590Y-063270
X124130Y-063270
X124130Y-060730
X121590Y-060730
X119050Y-060730
X116510Y-060730
X113970Y-060730
X111430Y-060730
X108890Y-060730
X106350Y-060730
X103810Y-060730
X101270Y-060730
X098730Y-060730
X096190Y-060730
X093650Y-060730
X091110Y-060730
X088570Y-060730
X086030Y-060730
X083490Y-060730
X080950Y-060730
X078410Y-060730
X075870Y-060730
X194271Y-046922G85X194271Y-046922
X194271Y-043422G85X194271Y-043422
X181317Y-037602G85X181317Y-037602
X181317Y-040142G85X181317Y-040142
X181317Y-042682G85X181317Y-042682
X181317Y-045222G85X181317Y-045222
X181317Y-047762G85X181317Y-047762
X181317Y-050302G85X181317Y-050302
X181317Y-052842G85X181317Y-052842
X019271Y-046922G85X019271Y-046922
X019271Y-043422G85X019271Y-043422
X006317Y-037602G85X006317Y-037602
X006317Y-040142G85X006317Y-040142
X006317Y-042682G85X006317Y-042682
X006317Y-045222G85X006317Y-045222
X006317Y-047762G85X006317Y-047762
X006317Y-050302G85X006317Y-050302
X006317Y-052842G85X006317Y-052842
T03
X136524Y-073476
X139064Y-073476
X141604Y-073476
X144144Y-073476
X146684Y-073476
X149224Y-073476
X151764Y-073476
X154304Y-073476
X156844Y-073476
X159384Y-073476
T04
X147525Y-046038
X147525Y-043498
X147525Y-040958
X147525Y-038418
X147525Y-035878
X147525Y-033338
X147525Y-030798
X147525Y-028258
X147525Y-025718
X147525Y-023178
X147525Y-020638
X147525Y-018098
X147525Y-015558
X147525Y-013018
T05
X172500Y-073000
X187499Y-073000
X012500Y-073000
X027500Y-073000
T06
X195287Y-038869G85X195287Y-038874
X195287Y-051569G85X195287Y-051574
X020287Y-038869G85X020287Y-038874
X020287Y-051569G85X020287Y-051574
T07
X054000Y-005250
X146000Y-005250
X146000Y-054750
X054000Y-054750
M30
