G04 Layer: TopSolderMaskLayer*
G04 EasyEDA v6.5.54, 2026-05-03 23:53:57*
G04 ac25f32082a5447089b6658e9d52d730,342c09687d4c4aa888aeea412d69bad7,10*
G04 Gerber Generator version 0.2*
G04 Scale: 100 percent, Rotated: No, Reflected: No *
G04 Dimensions in millimeters *
G04 leading zeros omitted , absolute positions ,4 integer and 5 decimal *
%FSLAX45Y45*%
%MOMM*%

%AMMACRO1*4,1,8,-0.7751,-0.8048,-0.8048,-0.775,-0.8048,0.7751,-0.7751,0.8048,0.775,0.8048,0.8048,0.7751,0.8048,-0.775,0.775,-0.8048,-0.7751,-0.8048,0*%
%AMMACRO2*4,1,8,-1.7211,-0.9008,-1.7508,-0.871,-1.7508,0.8711,-1.7211,0.9008,1.721,0.9008,1.7508,0.8711,1.7508,-0.871,1.721,-0.9008,-1.7211,-0.9008,0*%
%AMMACRO3*4,1,8,-1.0711,-0.7508,-1.1008,-0.721,-1.1008,0.7211,-1.0711,0.7508,1.071,0.7508,1.1008,0.7211,1.1008,-0.721,1.071,-0.7508,-1.0711,-0.7508,0*%
%AMMACRO4*4,1,8,-1.071,-0.7508,-1.1008,-0.721,-1.1008,0.7211,-1.071,0.7508,1.071,0.7508,1.1008,0.7211,1.1008,-0.721,1.071,-0.7508,-1.071,-0.7508,0*%
%AMMACRO5*4,1,8,-0.8211,-0.8508,-0.8508,-0.821,-0.8508,0.8211,-0.8211,0.8508,0.821,0.8508,0.8508,0.8211,0.8508,-0.821,0.821,-0.8508,-0.8211,-0.8508,0*%
%AMMACRO6*4,1,8,-0.8085,-0.9008,-0.8382,-0.871,-0.8382,0.8711,-0.8085,0.9008,0.8084,0.9008,0.8382,0.8711,0.8382,-0.871,0.8084,-0.9008,-0.8085,-0.9008,0*%
%AMMACRO7*4,1,8,-0.557,-0.3168,-0.5868,-0.287,-0.5868,0.287,-0.557,0.3168,0.557,0.3168,0.5868,0.287,0.5868,-0.287,0.557,-0.3168,-0.557,-0.3168,0*%
%ADD10MACRO1*%
%ADD11MACRO2*%
%ADD12MACRO3*%
%ADD13MACRO4*%
%ADD14C,1.9812*%
%ADD15O,3.601593X1.601597*%
%ADD16O,1.601597X3.401593*%
%ADD17C,1.9000*%
%ADD18C,0.0112*%
%ADD19MACRO5*%
%ADD20C,1.7016*%
%ADD21C,6.5016*%
%ADD22MACRO6*%
%ADD23C,1.8016*%
%ADD24C,3.7191*%
%ADD25C,2.3876*%
%ADD26C,2.1336*%
%ADD27MACRO7*%

%LPD*%
D10*
G01*
X4110992Y-6810987D03*
G01*
X5634987Y-6810987D03*
G01*
X4110992Y-8588982D03*
G01*
X5634987Y-8588982D03*
D11*
G01*
X6184900Y-7035800D03*
G01*
X6184900Y-7391400D03*
D12*
G01*
X15544968Y-2774990D03*
D13*
G01*
X16454968Y-2774994D03*
D12*
G01*
X15544971Y-3224997D03*
G01*
X16454967Y-3224994D03*
G01*
X16544966Y-1774992D03*
D13*
G01*
X17454966Y-1774996D03*
D12*
G01*
X16544969Y-2224999D03*
G01*
X17454965Y-2224996D03*
G01*
X17544964Y-2774990D03*
D13*
G01*
X18454964Y-2774994D03*
D12*
G01*
X17544967Y-3224997D03*
G01*
X18454963Y-3224994D03*
G01*
X16544966Y-3774988D03*
D13*
G01*
X17454966Y-3774992D03*
D12*
G01*
X16544969Y-4224995D03*
G01*
X17454965Y-4224992D03*
G01*
X2544994Y-3774988D03*
D13*
G01*
X3454994Y-3774992D03*
D12*
G01*
X2544997Y-4224995D03*
G01*
X3454993Y-4224992D03*
G01*
X3544992Y-2774990D03*
D13*
G01*
X4454992Y-2774994D03*
D12*
G01*
X3544995Y-3224997D03*
G01*
X4454991Y-3224994D03*
G01*
X2544994Y-1774992D03*
D13*
G01*
X3454994Y-1774996D03*
D12*
G01*
X2544997Y-2224999D03*
G01*
X3454993Y-2224996D03*
G01*
X1544996Y-2774990D03*
D13*
G01*
X2454996Y-2774994D03*
D12*
G01*
X1544999Y-3224997D03*
G01*
X2454995Y-3224994D03*
D14*
G01*
X13652372Y-7347585D03*
G01*
X13906372Y-7347585D03*
G01*
X14160372Y-7347585D03*
G01*
X14414372Y-7347585D03*
G01*
X14668372Y-7347585D03*
G01*
X14922372Y-7347585D03*
G01*
X15176372Y-7347585D03*
G01*
X15430372Y-7347585D03*
G01*
X15684372Y-7347585D03*
G01*
X15938372Y-7347585D03*
D15*
G01*
X14999970Y-8274989D03*
D16*
G01*
X15253970Y-8525002D03*
G01*
X14745970Y-8525002D03*
D17*
G01*
X17249978Y-7299985D03*
G01*
X18749975Y-7299985D03*
G01*
X1250010Y-7299985D03*
G01*
X2750007Y-7299985D03*
D19*
G01*
X7586985Y-6326987D03*
D20*
G01*
X7840979Y-6326987D03*
G01*
X8094979Y-6326987D03*
G01*
X8348979Y-6326987D03*
G01*
X8602979Y-6326987D03*
G01*
X8856979Y-6326987D03*
G01*
X9110979Y-6326987D03*
G01*
X9364979Y-6326987D03*
G01*
X9618979Y-6326987D03*
G01*
X9872979Y-6326987D03*
G01*
X10126979Y-6326987D03*
G01*
X10380979Y-6326987D03*
G01*
X10634979Y-6326987D03*
G01*
X10888979Y-6326987D03*
G01*
X11142979Y-6326987D03*
G01*
X11396979Y-6326987D03*
G01*
X11650979Y-6326987D03*
G01*
X11904979Y-6326987D03*
G01*
X12158979Y-6326987D03*
G01*
X12412979Y-6326987D03*
G01*
X12412979Y-6072987D03*
G01*
X12158979Y-6072987D03*
G01*
X11904979Y-6072987D03*
G01*
X11650979Y-6072987D03*
G01*
X11396979Y-6072987D03*
G01*
X11142979Y-6072987D03*
G01*
X10888979Y-6072987D03*
G01*
X10634979Y-6072987D03*
G01*
X10380979Y-6072987D03*
G01*
X10126979Y-6072987D03*
G01*
X9872979Y-6072987D03*
G01*
X9618979Y-6072987D03*
G01*
X9364979Y-6072987D03*
G01*
X9110979Y-6072987D03*
G01*
X8856979Y-6072987D03*
G01*
X8602979Y-6072987D03*
G01*
X8348979Y-6072987D03*
G01*
X8094979Y-6072987D03*
G01*
X7840979Y-6072987D03*
G01*
X7586979Y-6072987D03*
D21*
G01*
X5399989Y-524992D03*
G01*
X14599970Y-524992D03*
G01*
X14599970Y-5474995D03*
G01*
X5399989Y-5474995D03*
D22*
G01*
X14752480Y-4603800D03*
D23*
G01*
X14752472Y-4349800D03*
G01*
X14752472Y-4095800D03*
G01*
X14752472Y-3841800D03*
G01*
X14752472Y-3587800D03*
G01*
X14752472Y-3333800D03*
G01*
X14752472Y-3079800D03*
G01*
X14752472Y-2825800D03*
G01*
X14752472Y-2571800D03*
G01*
X14752472Y-2317800D03*
G01*
X14752472Y-2063800D03*
G01*
X14752472Y-1809800D03*
G01*
X14752472Y-1555800D03*
G01*
X14752472Y-1301800D03*
D24*
G01*
X19528663Y-3887190D03*
G01*
X19528663Y-5157190D03*
D25*
G01*
X19427063Y-4692192D03*
G01*
X19427063Y-4342180D03*
D26*
G01*
X18131663Y-3760190D03*
G01*
X18131663Y-4014190D03*
G01*
X18131663Y-4268190D03*
G01*
X18131663Y-4522190D03*
G01*
X18131663Y-4776190D03*
G01*
X18131663Y-5030190D03*
G01*
X18131663Y-5284190D03*
D24*
G01*
X2028697Y-3887190D03*
G01*
X2028697Y-5157190D03*
D25*
G01*
X1927097Y-4692192D03*
G01*
X1927097Y-4342180D03*
D26*
G01*
X631697Y-3760190D03*
G01*
X631697Y-4014190D03*
G01*
X631697Y-4268190D03*
G01*
X631697Y-4522190D03*
G01*
X631697Y-4776190D03*
G01*
X631697Y-5030190D03*
G01*
X631697Y-5284190D03*
D27*
G01*
X6298664Y-8389757D03*
G01*
X6298664Y-8484753D03*
G01*
X6298664Y-8579749D03*
G01*
X6068844Y-8579749D03*
G01*
X6068844Y-8484753D03*
G01*
X6068844Y-8389757D03*
M02*
