G04 Layer: BottomLayer*
G04 EasyEDA v6.5.54, 2026-05-03 23:53:57*
G04 ac25f32082a5447089b6658e9d52d730,342c09687d4c4aa888aeea412d69bad7,10*
G04 Gerber Generator version 0.2*
G04 Scale: 100 percent, Rotated: No, Reflected: No *
G04 Dimensions in millimeters *
G04 leading zeros omitted , absolute positions ,4 integer and 5 decimal *
%FSLAX45Y45*%
%MOMM*%

%ADD10R,1.5080X1.5080*%
%ADD11C,1.8796*%
%ADD12O,3.499993X1.499997*%
%ADD13O,1.499997X3.299993*%
%ADD14C,1.8000*%
%ADD15C,0.0143*%
%ADD16R,1.6000X1.6000*%
%ADD17C,1.6000*%
%ADD18C,6.4000*%
%ADD19R,1.5748X1.7000*%
%ADD20C,1.7000*%
%ADD21C,3.5159*%
%ADD22C,2.1844*%
%ADD23C,1.9304*%

%LPD*%
D10*
G01*
X4110990Y-6810984D03*
G01*
X5634990Y-6810984D03*
G01*
X4110990Y-8588984D03*
G01*
X5634990Y-8588984D03*
D11*
G01*
X13652372Y-7347585D03*
G01*
X13906372Y-7347585D03*
G01*
X14160372Y-7347585D03*
G01*
X14414372Y-7347585D03*
G01*
X14668372Y-7347585D03*
G01*
X14922372Y-7347585D03*
G01*
X15176372Y-7347585D03*
G01*
X15430372Y-7347585D03*
G01*
X15684372Y-7347585D03*
G01*
X15938372Y-7347585D03*
D12*
G01*
X14999970Y-8274989D03*
D13*
G01*
X15253970Y-8525002D03*
G01*
X14745970Y-8525002D03*
D14*
G01*
X17249978Y-7299985D03*
G01*
X18749975Y-7299985D03*
G01*
X1250010Y-7299985D03*
G01*
X2750007Y-7299985D03*
D16*
G01*
X7586979Y-6326987D03*
D17*
G01*
X7840979Y-6326987D03*
G01*
X8094979Y-6326987D03*
G01*
X8348979Y-6326987D03*
G01*
X8602979Y-6326987D03*
G01*
X8856979Y-6326987D03*
G01*
X9110979Y-6326987D03*
G01*
X9364979Y-6326987D03*
G01*
X9618979Y-6326987D03*
G01*
X9872979Y-6326987D03*
G01*
X10126979Y-6326987D03*
G01*
X10380979Y-6326987D03*
G01*
X10634979Y-6326987D03*
G01*
X10888979Y-6326987D03*
G01*
X11142979Y-6326987D03*
G01*
X11396979Y-6326987D03*
G01*
X11650979Y-6326987D03*
G01*
X11904979Y-6326987D03*
G01*
X12158979Y-6326987D03*
G01*
X12412979Y-6326987D03*
G01*
X12412979Y-6072987D03*
G01*
X12158979Y-6072987D03*
G01*
X11904979Y-6072987D03*
G01*
X11650979Y-6072987D03*
G01*
X11396979Y-6072987D03*
G01*
X11142979Y-6072987D03*
G01*
X10888979Y-6072987D03*
G01*
X10634979Y-6072987D03*
G01*
X10380979Y-6072987D03*
G01*
X10126979Y-6072987D03*
G01*
X9872979Y-6072987D03*
G01*
X9618979Y-6072987D03*
G01*
X9364979Y-6072987D03*
G01*
X9110979Y-6072987D03*
G01*
X8856979Y-6072987D03*
G01*
X8602979Y-6072987D03*
G01*
X8348979Y-6072987D03*
G01*
X8094979Y-6072987D03*
G01*
X7840979Y-6072987D03*
G01*
X7586979Y-6072987D03*
D18*
G01*
X5399989Y-524992D03*
G01*
X14599970Y-524992D03*
G01*
X14599970Y-5474995D03*
G01*
X5399989Y-5474995D03*
D19*
G01*
X14752472Y-4603800D03*
D20*
G01*
X14752472Y-4349800D03*
G01*
X14752472Y-4095800D03*
G01*
X14752472Y-3841800D03*
G01*
X14752472Y-3587800D03*
G01*
X14752472Y-3333800D03*
G01*
X14752472Y-3079800D03*
G01*
X14752472Y-2825800D03*
G01*
X14752472Y-2571800D03*
G01*
X14752472Y-2317800D03*
G01*
X14752472Y-2063800D03*
G01*
X14752472Y-1809800D03*
G01*
X14752472Y-1555800D03*
G01*
X14752472Y-1301800D03*
D21*
G01*
X19528663Y-3887190D03*
G01*
X19528663Y-5157190D03*
D22*
G01*
X19427063Y-4692192D03*
G01*
X19427063Y-4342180D03*
D23*
G01*
X18131663Y-3760190D03*
G01*
X18131663Y-4014190D03*
G01*
X18131663Y-4268190D03*
G01*
X18131663Y-4522190D03*
G01*
X18131663Y-4776190D03*
G01*
X18131663Y-5030190D03*
G01*
X18131663Y-5284190D03*
D21*
G01*
X2028697Y-3887190D03*
G01*
X2028697Y-5157190D03*
D22*
G01*
X1927097Y-4692192D03*
G01*
X1927097Y-4342180D03*
D23*
G01*
X631697Y-3760190D03*
G01*
X631697Y-4014190D03*
G01*
X631697Y-4268190D03*
G01*
X631697Y-4522190D03*
G01*
X631697Y-4776190D03*
G01*
X631697Y-5030190D03*
G01*
X631697Y-5284190D03*
M02*
