G04 Layer: TopSilkscreenLayer*
G04 EasyEDA v6.5.54, 2026-05-03 23:53:57*
G04 ac25f32082a5447089b6658e9d52d730,342c09687d4c4aa888aeea412d69bad7,10*
G04 Gerber Generator version 0.2*
G04 Scale: 100 percent, Rotated: No, Reflected: No *
G04 Dimensions in millimeters *
G04 leading zeros omitted , absolute positions ,4 integer and 5 decimal *
%FSLAX45Y45*%
%MOMM*%

%ADD10C,0.1524*%
%ADD11C,0.1016*%
%ADD12C,0.0813*%
%ADD13C,0.0650*%
%ADD14C,0.2032*%
%ADD15C,0.2540*%
%ADD16C,0.2540*%
%ADD17C,0.3048*%
%ADD18C,0.2500*%
%ADD19C,0.0173*%

%LPD*%
D10*
X4831334Y-9110700D02*
G01*
X4872990Y-9001734D01*
X4831334Y-9110700D02*
G01*
X4789931Y-9001734D01*
X4857495Y-9038056D02*
G01*
X4805425Y-9038056D01*
X4755641Y-9110700D02*
G01*
X4755641Y-9001734D01*
X4755641Y-9110700D02*
G01*
X4708906Y-9110700D01*
X4693158Y-9105620D01*
X4688077Y-9100286D01*
X4682743Y-9089872D01*
X4682743Y-9074378D01*
X4688077Y-9063964D01*
X4693158Y-9058884D01*
X4708906Y-9053550D01*
X4755641Y-9053550D01*
X4648454Y-9089872D02*
G01*
X4638040Y-9095206D01*
X4622545Y-9110700D01*
X4622545Y-9001734D01*
D11*
X5062489Y-8703251D02*
G01*
X5062489Y-8616637D01*
X5056647Y-8599111D01*
X5045217Y-8587681D01*
X5027945Y-8581839D01*
X5016261Y-8581839D01*
X4998989Y-8587681D01*
X4987559Y-8599111D01*
X4981717Y-8616637D01*
X4981717Y-8703251D01*
X4862845Y-8685725D02*
G01*
X4874275Y-8697409D01*
X4891547Y-8703251D01*
X4914661Y-8703251D01*
X4931933Y-8697409D01*
X4943617Y-8685725D01*
X4943617Y-8674295D01*
X4937775Y-8662611D01*
X4931933Y-8657023D01*
X4920503Y-8651181D01*
X4885959Y-8639751D01*
X4874275Y-8633909D01*
X4868433Y-8628067D01*
X4862845Y-8616637D01*
X4862845Y-8599111D01*
X4874275Y-8587681D01*
X4891547Y-8581839D01*
X4914661Y-8581839D01*
X4931933Y-8587681D01*
X4943617Y-8599111D01*
X4824745Y-8703251D02*
G01*
X4824745Y-8581839D01*
X4824745Y-8703251D02*
G01*
X4772675Y-8703251D01*
X4755403Y-8697409D01*
X4749561Y-8691567D01*
X4743719Y-8680137D01*
X4743719Y-8668453D01*
X4749561Y-8657023D01*
X4755403Y-8651181D01*
X4772675Y-8645339D01*
X4824745Y-8645339D02*
G01*
X4772675Y-8645339D01*
X4755403Y-8639751D01*
X4749561Y-8633909D01*
X4743719Y-8622225D01*
X4743719Y-8604953D01*
X4749561Y-8593523D01*
X4755403Y-8587681D01*
X4772675Y-8581839D01*
X4824745Y-8581839D01*
X5147104Y-8203252D02*
G01*
X5147104Y-8081840D01*
X5187490Y-8203252D02*
G01*
X5106718Y-8203252D01*
X5068618Y-8203252D02*
G01*
X5068618Y-8081840D01*
X5068618Y-8203252D02*
G01*
X5016548Y-8203252D01*
X4999276Y-8197410D01*
X4993434Y-8191568D01*
X4987846Y-8180138D01*
X4987846Y-8162612D01*
X4993434Y-8151182D01*
X4999276Y-8145340D01*
X5016548Y-8139752D01*
X5068618Y-8139752D01*
X4891834Y-8203252D02*
G01*
X4949746Y-8122226D01*
X4863132Y-8122226D01*
X4891834Y-8203252D02*
G01*
X4891834Y-8081840D01*
X4790234Y-8203252D02*
G01*
X4807760Y-8197410D01*
X4819190Y-8180138D01*
X4825032Y-8151182D01*
X4825032Y-8133910D01*
X4819190Y-8104954D01*
X4807760Y-8087682D01*
X4790234Y-8081840D01*
X4778804Y-8081840D01*
X4761532Y-8087682D01*
X4749848Y-8104954D01*
X4744260Y-8133910D01*
X4744260Y-8151182D01*
X4749848Y-8180138D01*
X4761532Y-8197410D01*
X4778804Y-8203252D01*
X4790234Y-8203252D01*
X4636818Y-8203252D02*
G01*
X4694476Y-8203252D01*
X4700318Y-8151182D01*
X4694476Y-8157024D01*
X4677204Y-8162612D01*
X4659932Y-8162612D01*
X4642660Y-8157024D01*
X4630976Y-8145340D01*
X4625134Y-8128068D01*
X4625134Y-8116638D01*
X4630976Y-8099112D01*
X4642660Y-8087682D01*
X4659932Y-8081840D01*
X4677204Y-8081840D01*
X4694476Y-8087682D01*
X4700318Y-8093524D01*
X4706160Y-8104954D01*
X4517946Y-8185726D02*
G01*
X4523534Y-8197410D01*
X4541060Y-8203252D01*
X4552490Y-8203252D01*
X4569762Y-8197410D01*
X4581446Y-8180138D01*
X4587034Y-8151182D01*
X4587034Y-8122226D01*
X4581446Y-8099112D01*
X4569762Y-8087682D01*
X4552490Y-8081840D01*
X4546648Y-8081840D01*
X4529376Y-8087682D01*
X4517946Y-8099112D01*
X4512104Y-8116638D01*
X4512104Y-8122226D01*
X4517946Y-8139752D01*
X4529376Y-8151182D01*
X4546648Y-8157024D01*
X4552490Y-8157024D01*
X4569762Y-8151182D01*
X4581446Y-8139752D01*
X4587034Y-8122226D01*
D12*
X5665104Y-8199983D02*
G01*
X5568076Y-8199983D01*
X5665104Y-8230463D02*
G01*
X5568076Y-8230463D01*
X5665104Y-8230463D02*
G01*
X5568076Y-8295233D01*
X5665104Y-8295233D02*
G01*
X5568076Y-8295233D01*
X5609478Y-8396833D02*
G01*
X5609478Y-8479891D01*
X4213608Y-8207984D02*
G01*
X4116580Y-8207984D01*
X4213608Y-8238464D02*
G01*
X4116580Y-8238464D01*
X4213608Y-8238464D02*
G01*
X4116580Y-8303234D01*
X4213608Y-8303234D02*
G01*
X4116580Y-8303234D01*
X4199638Y-8446236D02*
G01*
X4116580Y-8446236D01*
X4157982Y-8404834D02*
G01*
X4157982Y-8487892D01*
X5665104Y-6949986D02*
G01*
X5568076Y-6949986D01*
X5665104Y-6949986D02*
G01*
X5665104Y-6991642D01*
X5660278Y-7005358D01*
X5655706Y-7009930D01*
X5646562Y-7014756D01*
X5637418Y-7014756D01*
X5628020Y-7009930D01*
X5623448Y-7005358D01*
X5618876Y-6991642D01*
X5618876Y-6949986D02*
G01*
X5618876Y-6991642D01*
X5614304Y-7005358D01*
X5609478Y-7009930D01*
X5600334Y-7014756D01*
X5586618Y-7014756D01*
X5577220Y-7009930D01*
X5572648Y-7005358D01*
X5568076Y-6991642D01*
X5568076Y-6949986D01*
X5665104Y-7082066D02*
G01*
X5568076Y-7045236D01*
X5665104Y-7082066D02*
G01*
X5568076Y-7118896D01*
X5600334Y-7058952D02*
G01*
X5600334Y-7105180D01*
X5665104Y-7181888D02*
G01*
X5568076Y-7181888D01*
X5665104Y-7149376D02*
G01*
X5665104Y-7214146D01*
X5609478Y-7315746D02*
G01*
X5609478Y-7398804D01*
X4213608Y-6937987D02*
G01*
X4116580Y-6937987D01*
X4213608Y-6937987D02*
G01*
X4213608Y-6979643D01*
X4208782Y-6993359D01*
X4204210Y-6997931D01*
X4195066Y-7002757D01*
X4185922Y-7002757D01*
X4176524Y-6997931D01*
X4171952Y-6993359D01*
X4167380Y-6979643D01*
X4167380Y-6937987D02*
G01*
X4167380Y-6979643D01*
X4162808Y-6993359D01*
X4157982Y-6997931D01*
X4148838Y-7002757D01*
X4135122Y-7002757D01*
X4125724Y-6997931D01*
X4121152Y-6993359D01*
X4116580Y-6979643D01*
X4116580Y-6937987D01*
X4213608Y-7070067D02*
G01*
X4116580Y-7033237D01*
X4213608Y-7070067D02*
G01*
X4116580Y-7106897D01*
X4148838Y-7046953D02*
G01*
X4148838Y-7093181D01*
X4213608Y-7169889D02*
G01*
X4116580Y-7169889D01*
X4213608Y-7137377D02*
G01*
X4213608Y-7202147D01*
X4199638Y-7345403D02*
G01*
X4116580Y-7345403D01*
X4157982Y-7303747D02*
G01*
X4157982Y-7386805D01*
D13*
X5249989Y-7969526D02*
G01*
X5249989Y-7891802D01*
X5249989Y-7891802D02*
G01*
X5205539Y-7891802D01*
X5181155Y-7969526D02*
G01*
X5181155Y-7891802D01*
X5156771Y-7925076D02*
G01*
X5090477Y-7925076D01*
X5066093Y-7969526D02*
G01*
X5066093Y-7891802D01*
X5019357Y-7969526D02*
G01*
X5026723Y-7965716D01*
X5034343Y-7958350D01*
X5037899Y-7950984D01*
X5041709Y-7940062D01*
X5041709Y-7921520D01*
X5037899Y-7910344D01*
X5034343Y-7902978D01*
X5026723Y-7895612D01*
X5019357Y-7891802D01*
X5004625Y-7891802D01*
X4997259Y-7895612D01*
X4989893Y-7902978D01*
X4986083Y-7910344D01*
X4982527Y-7921520D01*
X4982527Y-7940062D01*
X4986083Y-7950984D01*
X4989893Y-7958350D01*
X4997259Y-7965716D01*
X5004625Y-7969526D01*
X5019357Y-7969526D01*
X4958143Y-7969526D02*
G01*
X4958143Y-7891802D01*
X4958143Y-7969526D02*
G01*
X4906327Y-7891802D01*
X4906327Y-7969526D02*
G01*
X4906327Y-7891802D01*
X4769675Y-7950984D02*
G01*
X4773485Y-7958350D01*
X4780851Y-7965716D01*
X4788217Y-7969526D01*
X4802949Y-7969526D01*
X4810315Y-7965716D01*
X4817681Y-7958350D01*
X4821491Y-7950984D01*
X4825047Y-7940062D01*
X4825047Y-7921520D01*
X4821491Y-7910344D01*
X4817681Y-7902978D01*
X4810315Y-7895612D01*
X4802949Y-7891802D01*
X4788217Y-7891802D01*
X4780851Y-7895612D01*
X4773485Y-7902978D01*
X4769675Y-7910344D01*
X4745291Y-7969526D02*
G01*
X4745291Y-7891802D01*
X4745291Y-7928886D02*
G01*
X4734115Y-7940062D01*
X4726749Y-7943618D01*
X4715827Y-7943618D01*
X4708461Y-7940062D01*
X4704651Y-7928886D01*
X4704651Y-7891802D01*
X4636071Y-7943618D02*
G01*
X4636071Y-7891802D01*
X4636071Y-7932442D02*
G01*
X4643437Y-7940062D01*
X4650803Y-7943618D01*
X4661725Y-7943618D01*
X4669091Y-7940062D01*
X4676711Y-7932442D01*
X4680267Y-7921520D01*
X4680267Y-7914154D01*
X4676711Y-7902978D01*
X4669091Y-7895612D01*
X4661725Y-7891802D01*
X4650803Y-7891802D01*
X4643437Y-7895612D01*
X4636071Y-7902978D01*
X4611687Y-7943618D02*
G01*
X4611687Y-7891802D01*
X4611687Y-7921520D02*
G01*
X4607877Y-7932442D01*
X4600511Y-7940062D01*
X4593145Y-7943618D01*
X4581969Y-7943618D01*
X4513389Y-7943618D02*
G01*
X4513389Y-7884436D01*
X4516945Y-7873514D01*
X4520755Y-7869704D01*
X4528121Y-7866148D01*
X4539043Y-7866148D01*
X4546663Y-7869704D01*
X4513389Y-7932442D02*
G01*
X4520755Y-7940062D01*
X4528121Y-7943618D01*
X4539043Y-7943618D01*
X4546663Y-7940062D01*
X4554029Y-7932442D01*
X4557585Y-7921520D01*
X4557585Y-7914154D01*
X4554029Y-7902978D01*
X4546663Y-7895612D01*
X4539043Y-7891802D01*
X4528121Y-7891802D01*
X4520755Y-7895612D01*
X4513389Y-7902978D01*
X4489005Y-7921520D02*
G01*
X4444555Y-7921520D01*
X4444555Y-7928886D01*
X4448365Y-7936252D01*
X4451921Y-7940062D01*
X4459287Y-7943618D01*
X4470463Y-7943618D01*
X4477829Y-7940062D01*
X4485195Y-7932442D01*
X4489005Y-7921520D01*
X4489005Y-7914154D01*
X4485195Y-7902978D01*
X4477829Y-7895612D01*
X4470463Y-7891802D01*
X4459287Y-7891802D01*
X4451921Y-7895612D01*
X4444555Y-7902978D01*
X4420171Y-7943618D02*
G01*
X4420171Y-7891802D01*
X4420171Y-7921520D02*
G01*
X4416615Y-7932442D01*
X4408995Y-7940062D01*
X4401629Y-7943618D01*
X4390707Y-7943618D01*
D10*
X6262877Y-6819392D02*
G01*
X6257543Y-6808978D01*
X6247129Y-6798563D01*
X6236970Y-6793484D01*
X6216141Y-6793484D01*
X6205727Y-6798563D01*
X6195313Y-6808978D01*
X6189979Y-6819392D01*
X6184900Y-6835139D01*
X6184900Y-6861047D01*
X6189979Y-6876542D01*
X6195313Y-6886955D01*
X6205727Y-6897370D01*
X6216141Y-6902450D01*
X6236970Y-6902450D01*
X6247129Y-6897370D01*
X6257543Y-6886955D01*
X6262877Y-6876542D01*
X6328409Y-6793484D02*
G01*
X6317995Y-6798563D01*
X6307581Y-6808978D01*
X6302247Y-6819392D01*
X6297168Y-6835139D01*
X6297168Y-6861047D01*
X6302247Y-6876542D01*
X6307581Y-6886955D01*
X6317995Y-6897370D01*
X6328409Y-6902450D01*
X6348984Y-6902450D01*
X6359397Y-6897370D01*
X6369811Y-6886955D01*
X6375145Y-6876542D01*
X6380225Y-6861047D01*
X6380225Y-6835139D01*
X6375145Y-6819392D01*
X6369811Y-6808978D01*
X6359397Y-6798563D01*
X6348984Y-6793484D01*
X6328409Y-6793484D01*
X6414515Y-6793484D02*
G01*
X6414515Y-6902450D01*
X6414515Y-6793484D02*
G01*
X6487159Y-6902450D01*
X6487159Y-6793484D02*
G01*
X6487159Y-6902450D01*
X6521450Y-6793484D02*
G01*
X6521450Y-6902450D01*
X6521450Y-6793484D02*
G01*
X6594347Y-6902450D01*
X6594347Y-6793484D02*
G01*
X6594347Y-6902450D01*
X6628638Y-6814312D02*
G01*
X6639052Y-6808978D01*
X6654545Y-6793484D01*
X6654545Y-6902450D01*
X15999968Y-2554478D02*
G01*
X15999968Y-2663444D01*
X16072611Y-2554478D02*
G01*
X15999968Y-2627121D01*
X16025875Y-2601213D02*
G01*
X16072611Y-2663444D01*
X16106902Y-2554478D02*
G01*
X16106902Y-2663444D01*
X16106902Y-2554478D02*
G01*
X16174466Y-2554478D01*
X16106902Y-2606294D02*
G01*
X16148558Y-2606294D01*
X16106902Y-2663444D02*
G01*
X16174466Y-2663444D01*
X16208756Y-2554478D02*
G01*
X16250411Y-2606294D01*
X16250411Y-2663444D01*
X16292068Y-2554478D02*
G01*
X16250411Y-2606294D01*
X16326358Y-2575305D02*
G01*
X16336518Y-2569971D01*
X16352266Y-2554478D01*
X16352266Y-2663444D01*
X16999966Y-1554479D02*
G01*
X16999966Y-1663445D01*
X17072609Y-1554479D02*
G01*
X16999966Y-1627123D01*
X17025874Y-1601215D02*
G01*
X17072609Y-1663445D01*
X17106900Y-1554479D02*
G01*
X17106900Y-1663445D01*
X17106900Y-1554479D02*
G01*
X17174463Y-1554479D01*
X17106900Y-1606295D02*
G01*
X17148556Y-1606295D01*
X17106900Y-1663445D02*
G01*
X17174463Y-1663445D01*
X17208754Y-1554479D02*
G01*
X17250409Y-1606295D01*
X17250409Y-1663445D01*
X17292066Y-1554479D02*
G01*
X17250409Y-1606295D01*
X17331436Y-1580387D02*
G01*
X17331436Y-1575307D01*
X17336516Y-1564894D01*
X17341850Y-1559560D01*
X17352263Y-1554479D01*
X17373091Y-1554479D01*
X17383506Y-1559560D01*
X17388586Y-1564894D01*
X17393666Y-1575307D01*
X17393666Y-1585721D01*
X17388586Y-1596136D01*
X17378172Y-1611629D01*
X17326356Y-1663445D01*
X17399000Y-1663445D01*
X17999963Y-2554478D02*
G01*
X17999963Y-2663444D01*
X18072608Y-2554478D02*
G01*
X17999963Y-2627121D01*
X18025872Y-2601213D02*
G01*
X18072608Y-2663444D01*
X18106898Y-2554478D02*
G01*
X18106898Y-2663444D01*
X18106898Y-2554478D02*
G01*
X18174461Y-2554478D01*
X18106898Y-2606294D02*
G01*
X18148554Y-2606294D01*
X18106898Y-2663444D02*
G01*
X18174461Y-2663444D01*
X18208752Y-2554478D02*
G01*
X18250408Y-2606294D01*
X18250408Y-2663444D01*
X18292063Y-2554478D02*
G01*
X18250408Y-2606294D01*
X18336513Y-2554478D02*
G01*
X18393663Y-2554478D01*
X18362675Y-2596134D01*
X18378170Y-2596134D01*
X18388584Y-2601213D01*
X18393663Y-2606294D01*
X18398998Y-2622042D01*
X18398998Y-2632455D01*
X18393663Y-2647950D01*
X18383504Y-2658363D01*
X18367756Y-2663444D01*
X18352261Y-2663444D01*
X18336513Y-2658363D01*
X18331434Y-2653284D01*
X18326354Y-2642870D01*
X16999966Y-3554476D02*
G01*
X16999966Y-3663442D01*
X17072609Y-3554476D02*
G01*
X16999966Y-3627120D01*
X17025874Y-3601212D02*
G01*
X17072609Y-3663442D01*
X17106900Y-3554476D02*
G01*
X17106900Y-3663442D01*
X17106900Y-3554476D02*
G01*
X17174463Y-3554476D01*
X17106900Y-3606292D02*
G01*
X17148556Y-3606292D01*
X17106900Y-3663442D02*
G01*
X17174463Y-3663442D01*
X17208754Y-3554476D02*
G01*
X17250409Y-3606292D01*
X17250409Y-3663442D01*
X17292066Y-3554476D02*
G01*
X17250409Y-3606292D01*
X17378172Y-3554476D02*
G01*
X17326356Y-3627120D01*
X17404079Y-3627120D01*
X17378172Y-3554476D02*
G01*
X17378172Y-3663442D01*
X2999993Y-3554476D02*
G01*
X2999993Y-3663442D01*
X3072638Y-3554476D02*
G01*
X2999993Y-3627120D01*
X3025902Y-3601212D02*
G01*
X3072638Y-3663442D01*
X3106927Y-3554476D02*
G01*
X3106927Y-3663442D01*
X3106927Y-3554476D02*
G01*
X3174491Y-3554476D01*
X3106927Y-3606292D02*
G01*
X3148584Y-3606292D01*
X3106927Y-3663442D02*
G01*
X3174491Y-3663442D01*
X3208781Y-3554476D02*
G01*
X3250438Y-3606292D01*
X3250438Y-3663442D01*
X3292093Y-3554476D02*
G01*
X3250438Y-3606292D01*
X3388613Y-3554476D02*
G01*
X3336543Y-3554476D01*
X3331463Y-3601212D01*
X3336543Y-3596131D01*
X3352291Y-3590797D01*
X3367786Y-3590797D01*
X3383534Y-3596131D01*
X3393693Y-3606292D01*
X3399027Y-3622039D01*
X3399027Y-3632454D01*
X3393693Y-3647947D01*
X3383534Y-3658362D01*
X3367786Y-3663442D01*
X3352291Y-3663442D01*
X3336543Y-3658362D01*
X3331463Y-3653281D01*
X3326384Y-3642868D01*
X3999991Y-2554478D02*
G01*
X3999991Y-2663444D01*
X4072636Y-2554478D02*
G01*
X3999991Y-2627121D01*
X4025900Y-2601213D02*
G01*
X4072636Y-2663444D01*
X4106925Y-2554478D02*
G01*
X4106925Y-2663444D01*
X4106925Y-2554478D02*
G01*
X4174490Y-2554478D01*
X4106925Y-2606294D02*
G01*
X4148581Y-2606294D01*
X4106925Y-2663444D02*
G01*
X4174490Y-2663444D01*
X4208779Y-2554478D02*
G01*
X4250436Y-2606294D01*
X4250436Y-2663444D01*
X4292091Y-2554478D02*
G01*
X4250436Y-2606294D01*
X4388611Y-2569971D02*
G01*
X4383531Y-2559557D01*
X4367784Y-2554478D01*
X4357370Y-2554478D01*
X4341875Y-2559557D01*
X4331461Y-2575305D01*
X4326381Y-2601213D01*
X4326381Y-2627121D01*
X4331461Y-2647950D01*
X4341875Y-2658363D01*
X4357370Y-2663444D01*
X4362704Y-2663444D01*
X4378197Y-2658363D01*
X4388611Y-2647950D01*
X4393691Y-2632455D01*
X4393691Y-2627121D01*
X4388611Y-2611628D01*
X4378197Y-2601213D01*
X4362704Y-2596134D01*
X4357370Y-2596134D01*
X4341875Y-2601213D01*
X4331461Y-2611628D01*
X4326381Y-2627121D01*
X2999993Y-1554479D02*
G01*
X2999993Y-1663445D01*
X3072638Y-1554479D02*
G01*
X2999993Y-1627123D01*
X3025902Y-1601215D02*
G01*
X3072638Y-1663445D01*
X3106927Y-1554479D02*
G01*
X3106927Y-1663445D01*
X3106927Y-1554479D02*
G01*
X3174491Y-1554479D01*
X3106927Y-1606295D02*
G01*
X3148584Y-1606295D01*
X3106927Y-1663445D02*
G01*
X3174491Y-1663445D01*
X3208781Y-1554479D02*
G01*
X3250438Y-1606295D01*
X3250438Y-1663445D01*
X3292093Y-1554479D02*
G01*
X3250438Y-1606295D01*
X3399027Y-1554479D02*
G01*
X3346958Y-1663445D01*
X3326384Y-1554479D02*
G01*
X3399027Y-1554479D01*
X1999995Y-2554478D02*
G01*
X1999995Y-2663444D01*
X2072640Y-2554478D02*
G01*
X1999995Y-2627121D01*
X2025904Y-2601213D02*
G01*
X2072640Y-2663444D01*
X2106929Y-2554478D02*
G01*
X2106929Y-2663444D01*
X2106929Y-2554478D02*
G01*
X2174493Y-2554478D01*
X2106929Y-2606294D02*
G01*
X2148586Y-2606294D01*
X2106929Y-2663444D02*
G01*
X2174493Y-2663444D01*
X2208784Y-2554478D02*
G01*
X2250440Y-2606294D01*
X2250440Y-2663444D01*
X2292095Y-2554478D02*
G01*
X2250440Y-2606294D01*
X2352293Y-2554478D02*
G01*
X2336545Y-2559557D01*
X2331465Y-2569971D01*
X2331465Y-2580386D01*
X2336545Y-2590800D01*
X2346959Y-2596134D01*
X2367788Y-2601213D01*
X2383536Y-2606294D01*
X2393695Y-2616707D01*
X2399029Y-2627121D01*
X2399029Y-2642870D01*
X2393695Y-2653284D01*
X2388615Y-2658363D01*
X2373122Y-2663444D01*
X2352293Y-2663444D01*
X2336545Y-2658363D01*
X2331465Y-2653284D01*
X2326386Y-2642870D01*
X2326386Y-2627121D01*
X2331465Y-2616707D01*
X2341879Y-2606294D01*
X2357374Y-2601213D01*
X2378202Y-2596134D01*
X2388615Y-2590800D01*
X2393695Y-2580386D01*
X2393695Y-2569971D01*
X2388615Y-2559557D01*
X2373122Y-2554478D01*
X2352293Y-2554478D01*
X14795372Y-5809869D02*
G01*
X14795372Y-5918835D01*
X14795372Y-5809869D02*
G01*
X14842109Y-5809869D01*
X14857602Y-5814948D01*
X14862936Y-5820282D01*
X14868016Y-5830696D01*
X14868016Y-5846190D01*
X14862936Y-5856604D01*
X14857602Y-5861685D01*
X14842109Y-5867019D01*
X14795372Y-5867019D01*
X14902306Y-5830696D02*
G01*
X14912720Y-5825362D01*
X14928468Y-5809869D01*
X14928468Y-5918835D01*
X14999970Y-7956461D02*
G01*
X14999970Y-8065427D01*
X14999970Y-7956461D02*
G01*
X15046706Y-7956461D01*
X15062200Y-7961541D01*
X15067534Y-7966875D01*
X15072613Y-7977289D01*
X15072613Y-7992783D01*
X15067534Y-8003197D01*
X15062200Y-8008277D01*
X15046706Y-8013611D01*
X14999970Y-8013611D01*
X15158974Y-7956461D02*
G01*
X15158974Y-8039519D01*
X15153640Y-8055267D01*
X15148559Y-8060347D01*
X15138145Y-8065427D01*
X15127731Y-8065427D01*
X15117318Y-8060347D01*
X15112238Y-8055267D01*
X15106904Y-8039519D01*
X15106904Y-8029105D01*
X15193263Y-7977289D02*
G01*
X15203677Y-7971955D01*
X15219172Y-7956461D01*
X15219172Y-8065427D01*
X18059793Y-5676163D02*
G01*
X18049379Y-5665749D01*
X18033885Y-5660669D01*
X18013057Y-5660669D01*
X17997563Y-5665749D01*
X17987149Y-5676163D01*
X17987149Y-5686577D01*
X17992229Y-5696991D01*
X17997563Y-5702325D01*
X18007977Y-5707405D01*
X18039219Y-5717819D01*
X18049379Y-5722899D01*
X18054713Y-5728233D01*
X18059793Y-5738647D01*
X18059793Y-5754141D01*
X18049379Y-5764555D01*
X18033885Y-5769635D01*
X18013057Y-5769635D01*
X17997563Y-5764555D01*
X17987149Y-5754141D01*
X18094083Y-5660669D02*
G01*
X18094083Y-5769635D01*
X18094083Y-5660669D02*
G01*
X18140819Y-5660669D01*
X18156567Y-5665749D01*
X18161647Y-5671083D01*
X18166981Y-5681497D01*
X18166981Y-5696991D01*
X18161647Y-5707405D01*
X18156567Y-5712485D01*
X18140819Y-5717819D01*
X18094083Y-5717819D01*
X18201271Y-5660669D02*
G01*
X18201271Y-5769635D01*
X18273915Y-5660669D02*
G01*
X18201271Y-5733313D01*
X18227179Y-5707405D02*
G01*
X18273915Y-5769635D01*
X18308205Y-5681497D02*
G01*
X18318619Y-5676163D01*
X18334113Y-5660669D01*
X18334113Y-5769635D01*
X2059825Y-5676163D02*
G01*
X2049411Y-5665749D01*
X2033917Y-5660669D01*
X2013089Y-5660669D01*
X1997595Y-5665749D01*
X1987181Y-5676163D01*
X1987181Y-5686577D01*
X1992261Y-5696991D01*
X1997595Y-5702325D01*
X2008009Y-5707405D01*
X2039251Y-5717819D01*
X2049411Y-5722899D01*
X2054745Y-5728233D01*
X2059825Y-5738647D01*
X2059825Y-5754141D01*
X2049411Y-5764555D01*
X2033917Y-5769635D01*
X2013089Y-5769635D01*
X1997595Y-5764555D01*
X1987181Y-5754141D01*
X2094115Y-5660669D02*
G01*
X2094115Y-5769635D01*
X2094115Y-5660669D02*
G01*
X2140851Y-5660669D01*
X2156599Y-5665749D01*
X2161679Y-5671083D01*
X2167013Y-5681497D01*
X2167013Y-5696991D01*
X2161679Y-5707405D01*
X2156599Y-5712485D01*
X2140851Y-5717819D01*
X2094115Y-5717819D01*
X2201303Y-5660669D02*
G01*
X2201303Y-5769635D01*
X2273947Y-5660669D02*
G01*
X2201303Y-5733313D01*
X2227211Y-5707405D02*
G01*
X2273947Y-5769635D01*
X2313571Y-5686577D02*
G01*
X2313571Y-5681497D01*
X2318651Y-5671083D01*
X2323731Y-5665749D01*
X2334145Y-5660669D01*
X2354973Y-5660669D01*
X2365387Y-5665749D01*
X2370721Y-5671083D01*
X2375801Y-5681497D01*
X2375801Y-5691911D01*
X2370721Y-5702325D01*
X2360307Y-5717819D01*
X2308237Y-5769635D01*
X2380881Y-5769635D01*
X6585592Y-7371270D02*
G01*
X6663570Y-7371270D01*
X6679064Y-7366190D01*
X6689478Y-7355776D01*
X6694558Y-7340028D01*
X6694558Y-7329614D01*
X6689478Y-7314120D01*
X6679064Y-7303706D01*
X6663570Y-7298626D01*
X6585592Y-7298626D01*
X6606420Y-7264336D02*
G01*
X6601086Y-7253922D01*
X6585592Y-7238174D01*
X6694558Y-7238174D01*
X9999979Y-39878D02*
G01*
X9999979Y-117855D01*
X10005059Y-133350D01*
X10015474Y-143763D01*
X10031222Y-148844D01*
X10041636Y-148844D01*
X10057129Y-143763D01*
X10067543Y-133350D01*
X10072624Y-117855D01*
X10072624Y-39878D01*
X10112247Y-65786D02*
G01*
X10112247Y-60705D01*
X10117327Y-50292D01*
X10122661Y-44957D01*
X10133075Y-39878D01*
X10153650Y-39878D01*
X10164063Y-44957D01*
X10169397Y-50292D01*
X10174477Y-60705D01*
X10174477Y-71120D01*
X10169397Y-81534D01*
X10158984Y-97028D01*
X10106913Y-148844D01*
X10179811Y-148844D01*
D14*
X14249486Y-4304344D02*
G01*
X14242628Y-4290628D01*
X14229166Y-4277166D01*
X14215450Y-4270308D01*
X14188272Y-4270308D01*
X14174556Y-4277166D01*
X14160840Y-4290628D01*
X14153982Y-4304344D01*
X14147378Y-4324918D01*
X14147378Y-4358954D01*
X14153982Y-4379274D01*
X14160840Y-4392990D01*
X14174556Y-4406706D01*
X14188272Y-4413564D01*
X14215450Y-4413564D01*
X14229166Y-4406706D01*
X14242628Y-4392990D01*
X14249486Y-4379274D01*
X14249486Y-4358954D01*
X14215450Y-4358954D02*
G01*
X14249486Y-4358954D01*
X14294444Y-4270308D02*
G01*
X14294444Y-4413564D01*
X14294444Y-4270308D02*
G01*
X14389948Y-4413564D01*
X14389948Y-4270308D02*
G01*
X14389948Y-4413564D01*
X14434906Y-4270308D02*
G01*
X14434906Y-4413564D01*
X14434906Y-4270308D02*
G01*
X14482658Y-4270308D01*
X14503232Y-4277166D01*
X14516948Y-4290628D01*
X14523552Y-4304344D01*
X14530410Y-4324918D01*
X14530410Y-4358954D01*
X14523552Y-4379274D01*
X14516948Y-4392990D01*
X14503232Y-4406706D01*
X14482658Y-4413564D01*
X14434906Y-4413564D01*
X14147302Y-4520321D02*
G01*
X14201912Y-4663577D01*
X14256268Y-4520321D02*
G01*
X14201912Y-4663577D01*
X14403588Y-4554357D02*
G01*
X14396730Y-4540641D01*
X14383268Y-4527179D01*
X14369552Y-4520321D01*
X14342374Y-4520321D01*
X14328658Y-4527179D01*
X14314942Y-4540641D01*
X14308084Y-4554357D01*
X14301480Y-4574931D01*
X14301480Y-4608967D01*
X14308084Y-4629287D01*
X14314942Y-4643003D01*
X14328658Y-4656719D01*
X14342374Y-4663577D01*
X14369552Y-4663577D01*
X14383268Y-4656719D01*
X14396730Y-4643003D01*
X14403588Y-4629287D01*
X14550908Y-4554357D02*
G01*
X14544050Y-4540641D01*
X14530334Y-4527179D01*
X14516872Y-4520321D01*
X14489440Y-4520321D01*
X14475978Y-4527179D01*
X14462262Y-4540641D01*
X14455404Y-4554357D01*
X14448546Y-4574931D01*
X14448546Y-4608967D01*
X14455404Y-4629287D01*
X14462262Y-4643003D01*
X14475978Y-4656719D01*
X14489440Y-4663577D01*
X14516872Y-4663577D01*
X14530334Y-4656719D01*
X14544050Y-4643003D01*
X14550908Y-4629287D01*
X14349600Y-4054447D02*
G01*
X14342742Y-4040731D01*
X14329026Y-4027015D01*
X14315564Y-4020157D01*
X14288132Y-4020157D01*
X14274670Y-4027015D01*
X14260954Y-4040731D01*
X14254096Y-4054447D01*
X14247238Y-4074767D01*
X14247238Y-4108803D01*
X14254096Y-4129377D01*
X14260954Y-4143093D01*
X14274670Y-4156555D01*
X14288132Y-4163413D01*
X14315564Y-4163413D01*
X14329026Y-4156555D01*
X14342742Y-4143093D01*
X14349600Y-4129377D01*
X14490062Y-4040731D02*
G01*
X14476346Y-4027015D01*
X14456026Y-4020157D01*
X14428594Y-4020157D01*
X14408274Y-4027015D01*
X14394558Y-4040731D01*
X14394558Y-4054447D01*
X14401416Y-4067909D01*
X14408274Y-4074767D01*
X14421736Y-4081625D01*
X14462630Y-4095341D01*
X14476346Y-4102199D01*
X14483204Y-4108803D01*
X14490062Y-4122519D01*
X14490062Y-4143093D01*
X14476346Y-4156555D01*
X14456026Y-4163413D01*
X14428594Y-4163413D01*
X14408274Y-4156555D01*
X14394558Y-4143093D01*
X13947239Y-3770221D02*
G01*
X13947239Y-3913477D01*
X13947239Y-3770221D02*
G01*
X14008707Y-3770221D01*
X14029027Y-3777079D01*
X14035885Y-3783937D01*
X14042743Y-3797653D01*
X14042743Y-3811115D01*
X14035885Y-3824831D01*
X14029027Y-3831689D01*
X14008707Y-3838547D01*
X13947239Y-3838547D01*
X13994991Y-3838547D02*
G01*
X14042743Y-3913477D01*
X14087701Y-3770221D02*
G01*
X14087701Y-3913477D01*
X14087701Y-3770221D02*
G01*
X14176347Y-3770221D01*
X14087701Y-3838547D02*
G01*
X14142311Y-3838547D01*
X14087701Y-3913477D02*
G01*
X14176347Y-3913477D01*
X14316809Y-3790795D02*
G01*
X14303093Y-3777079D01*
X14282773Y-3770221D01*
X14255341Y-3770221D01*
X14235021Y-3777079D01*
X14221305Y-3790795D01*
X14221305Y-3804257D01*
X14228163Y-3817973D01*
X14235021Y-3824831D01*
X14248737Y-3831689D01*
X14289631Y-3845405D01*
X14303093Y-3852009D01*
X14309951Y-3858867D01*
X14316809Y-3872583D01*
X14316809Y-3892903D01*
X14303093Y-3906619D01*
X14282773Y-3913477D01*
X14255341Y-3913477D01*
X14235021Y-3906619D01*
X14221305Y-3892903D01*
X14361767Y-3770221D02*
G01*
X14361767Y-3913477D01*
X14361767Y-3770221D02*
G01*
X14450413Y-3770221D01*
X14361767Y-3838547D02*
G01*
X14416377Y-3838547D01*
X14361767Y-3913477D02*
G01*
X14450413Y-3913477D01*
X14543123Y-3770221D02*
G01*
X14543123Y-3913477D01*
X14495371Y-3770221D02*
G01*
X14590875Y-3770221D01*
X14147238Y-3520285D02*
G01*
X14147238Y-3663541D01*
X14147238Y-3520285D02*
G01*
X14194990Y-3520285D01*
X14215564Y-3527143D01*
X14229026Y-3540859D01*
X14235884Y-3554321D01*
X14242742Y-3574895D01*
X14242742Y-3608931D01*
X14235884Y-3629251D01*
X14229026Y-3642967D01*
X14215564Y-3656683D01*
X14194990Y-3663541D01*
X14147238Y-3663541D01*
X14410382Y-3493107D02*
G01*
X14287700Y-3711293D01*
X14557702Y-3554321D02*
G01*
X14550844Y-3540859D01*
X14537382Y-3527143D01*
X14523666Y-3520285D01*
X14496488Y-3520285D01*
X14482772Y-3527143D01*
X14469056Y-3540859D01*
X14462198Y-3554321D01*
X14455340Y-3574895D01*
X14455340Y-3608931D01*
X14462198Y-3629251D01*
X14469056Y-3642967D01*
X14482772Y-3656683D01*
X14496488Y-3663541D01*
X14523666Y-3663541D01*
X14537382Y-3656683D01*
X14550844Y-3642967D01*
X14557702Y-3629251D01*
X14097276Y-3270349D02*
G01*
X14097276Y-3413351D01*
X14097276Y-3270349D02*
G01*
X14151886Y-3413351D01*
X14206242Y-3270349D02*
G01*
X14151886Y-3413351D01*
X14206242Y-3270349D02*
G01*
X14206242Y-3413351D01*
X14292348Y-3270349D02*
G01*
X14278632Y-3277207D01*
X14264916Y-3290669D01*
X14258058Y-3304385D01*
X14251454Y-3324705D01*
X14251454Y-3358995D01*
X14258058Y-3379315D01*
X14264916Y-3393031D01*
X14278632Y-3406747D01*
X14292348Y-3413351D01*
X14319526Y-3413351D01*
X14333242Y-3406747D01*
X14346704Y-3393031D01*
X14353562Y-3379315D01*
X14360420Y-3358995D01*
X14360420Y-3324705D01*
X14353562Y-3304385D01*
X14346704Y-3290669D01*
X14333242Y-3277207D01*
X14319526Y-3270349D01*
X14292348Y-3270349D01*
X14500882Y-3290669D02*
G01*
X14487166Y-3277207D01*
X14466846Y-3270349D01*
X14439668Y-3270349D01*
X14419094Y-3277207D01*
X14405378Y-3290669D01*
X14405378Y-3304385D01*
X14412236Y-3318101D01*
X14419094Y-3324705D01*
X14432810Y-3331563D01*
X14473704Y-3345279D01*
X14487166Y-3352137D01*
X14494024Y-3358995D01*
X14500882Y-3372457D01*
X14500882Y-3393031D01*
X14487166Y-3406747D01*
X14466846Y-3413351D01*
X14439668Y-3413351D01*
X14419094Y-3406747D01*
X14405378Y-3393031D01*
X14545840Y-3270349D02*
G01*
X14545840Y-3413351D01*
X14242704Y-3040733D02*
G01*
X14228988Y-3027017D01*
X14208668Y-3020159D01*
X14181490Y-3020159D01*
X14160916Y-3027017D01*
X14147200Y-3040733D01*
X14147200Y-3054449D01*
X14154058Y-3067911D01*
X14160916Y-3074769D01*
X14174632Y-3081627D01*
X14215526Y-3095343D01*
X14228988Y-3102201D01*
X14235846Y-3108805D01*
X14242704Y-3122521D01*
X14242704Y-3143095D01*
X14228988Y-3156557D01*
X14208668Y-3163415D01*
X14181490Y-3163415D01*
X14160916Y-3156557D01*
X14147200Y-3143095D01*
X14390024Y-3054449D02*
G01*
X14383166Y-3040733D01*
X14369450Y-3027017D01*
X14355988Y-3020159D01*
X14328556Y-3020159D01*
X14315094Y-3027017D01*
X14301378Y-3040733D01*
X14294520Y-3054449D01*
X14287662Y-3074769D01*
X14287662Y-3108805D01*
X14294520Y-3129379D01*
X14301378Y-3143095D01*
X14315094Y-3156557D01*
X14328556Y-3163415D01*
X14355988Y-3163415D01*
X14369450Y-3156557D01*
X14383166Y-3143095D01*
X14390024Y-3129379D01*
X14434982Y-3020159D02*
G01*
X14434982Y-3163415D01*
X14530486Y-3020159D02*
G01*
X14434982Y-3115663D01*
X14469018Y-3081627D02*
G01*
X14530486Y-3163415D01*
X14197238Y-2770223D02*
G01*
X14197238Y-2913479D01*
X14197238Y-2913479D02*
G01*
X14279026Y-2913479D01*
X14323984Y-2770223D02*
G01*
X14323984Y-2913479D01*
X14323984Y-2770223D02*
G01*
X14412630Y-2770223D01*
X14323984Y-2838549D02*
G01*
X14378594Y-2838549D01*
X14323984Y-2913479D02*
G01*
X14412630Y-2913479D01*
X14457842Y-2770223D02*
G01*
X14457842Y-2913479D01*
X14457842Y-2770223D02*
G01*
X14505340Y-2770223D01*
X14525914Y-2777081D01*
X14539630Y-2790797D01*
X14546488Y-2804259D01*
X14553092Y-2824833D01*
X14553092Y-2858869D01*
X14546488Y-2879443D01*
X14539630Y-2892905D01*
X14525914Y-2906621D01*
X14505340Y-2913479D01*
X14457842Y-2913479D01*
X14097276Y-2520287D02*
G01*
X14097276Y-2663543D01*
X14097276Y-2520287D02*
G01*
X14151886Y-2663543D01*
X14206242Y-2520287D02*
G01*
X14151886Y-2663543D01*
X14206242Y-2520287D02*
G01*
X14206242Y-2663543D01*
X14251454Y-2520287D02*
G01*
X14251454Y-2663543D01*
X14391916Y-2540861D02*
G01*
X14378200Y-2527145D01*
X14357626Y-2520287D01*
X14330448Y-2520287D01*
X14310128Y-2527145D01*
X14296412Y-2540861D01*
X14296412Y-2554323D01*
X14303270Y-2568039D01*
X14310128Y-2574897D01*
X14323590Y-2581755D01*
X14364484Y-2595217D01*
X14378200Y-2602075D01*
X14385058Y-2608933D01*
X14391916Y-2622649D01*
X14391916Y-2642969D01*
X14378200Y-2656685D01*
X14357626Y-2663543D01*
X14330448Y-2663543D01*
X14310128Y-2656685D01*
X14296412Y-2642969D01*
X14477768Y-2520287D02*
G01*
X14464052Y-2527145D01*
X14450336Y-2540861D01*
X14443732Y-2554323D01*
X14436874Y-2574897D01*
X14436874Y-2608933D01*
X14443732Y-2629253D01*
X14450336Y-2642969D01*
X14464052Y-2656685D01*
X14477768Y-2663543D01*
X14504946Y-2663543D01*
X14518662Y-2656685D01*
X14532378Y-2642969D01*
X14538982Y-2629253D01*
X14545840Y-2608933D01*
X14545840Y-2574897D01*
X14538982Y-2554323D01*
X14532378Y-2540861D01*
X14518662Y-2527145D01*
X14504946Y-2520287D01*
X14477768Y-2520287D01*
X13944953Y-2270351D02*
G01*
X13944953Y-2413353D01*
X13897201Y-2270351D02*
G01*
X13992705Y-2270351D01*
X14037663Y-2461105D02*
G01*
X14160345Y-2461105D01*
X14307665Y-2304387D02*
G01*
X14300807Y-2290671D01*
X14287345Y-2277209D01*
X14273629Y-2270351D01*
X14246451Y-2270351D01*
X14232735Y-2277209D01*
X14219019Y-2290671D01*
X14212161Y-2304387D01*
X14205557Y-2324707D01*
X14205557Y-2358997D01*
X14212161Y-2379317D01*
X14219019Y-2393033D01*
X14232735Y-2406749D01*
X14246451Y-2413353D01*
X14273629Y-2413353D01*
X14287345Y-2406749D01*
X14300807Y-2393033D01*
X14307665Y-2379317D01*
X14352623Y-2270351D02*
G01*
X14352623Y-2413353D01*
X14352623Y-2413353D02*
G01*
X14434665Y-2413353D01*
X14479623Y-2270351D02*
G01*
X14479623Y-2413353D01*
X14575127Y-2270351D02*
G01*
X14479623Y-2365855D01*
X14513659Y-2331565D02*
G01*
X14575127Y-2413353D01*
X14010055Y-2005162D02*
G01*
X14010055Y-2148418D01*
X13962303Y-2005162D02*
G01*
X14057807Y-2005162D01*
X14102765Y-2196170D02*
G01*
X14225447Y-2196170D01*
X14372767Y-2039452D02*
G01*
X14365909Y-2025736D01*
X14352193Y-2012020D01*
X14338731Y-2005162D01*
X14311299Y-2005162D01*
X14297837Y-2012020D01*
X14284121Y-2025736D01*
X14277263Y-2039452D01*
X14270405Y-2059772D01*
X14270405Y-2093808D01*
X14277263Y-2114382D01*
X14284121Y-2128098D01*
X14297837Y-2141560D01*
X14311299Y-2148418D01*
X14338731Y-2148418D01*
X14352193Y-2141560D01*
X14365909Y-2128098D01*
X14372767Y-2114382D01*
X14513229Y-2025736D02*
G01*
X14499513Y-2012020D01*
X14479193Y-2005162D01*
X14451761Y-2005162D01*
X14431441Y-2012020D01*
X14417725Y-2025736D01*
X14417725Y-2039452D01*
X14424583Y-2052914D01*
X14431441Y-2059772D01*
X14444903Y-2066630D01*
X14485797Y-2080346D01*
X14499513Y-2087204D01*
X14506371Y-2093808D01*
X14513229Y-2107524D01*
X14513229Y-2128098D01*
X14499513Y-2141560D01*
X14479193Y-2148418D01*
X14451761Y-2148418D01*
X14431441Y-2141560D01*
X14417725Y-2128098D01*
X13975092Y-1755223D02*
G01*
X13975092Y-1898479D01*
X13927340Y-1755223D02*
G01*
X14022844Y-1755223D01*
X14067802Y-1946231D02*
G01*
X14190484Y-1946231D01*
X14235442Y-1755223D02*
G01*
X14235442Y-1898479D01*
X14235442Y-1755223D02*
G01*
X14283194Y-1755223D01*
X14303514Y-1762081D01*
X14317230Y-1775797D01*
X14324088Y-1789259D01*
X14330946Y-1809833D01*
X14330946Y-1843869D01*
X14324088Y-1864443D01*
X14317230Y-1877905D01*
X14303514Y-1891621D01*
X14283194Y-1898479D01*
X14235442Y-1898479D01*
X14375904Y-1755223D02*
G01*
X14375904Y-1898479D01*
X14420862Y-1755223D02*
G01*
X14420862Y-1898479D01*
X14420862Y-1755223D02*
G01*
X14516366Y-1898479D01*
X14516366Y-1755223D02*
G01*
X14516366Y-1898479D01*
X14025092Y-1485290D02*
G01*
X14025092Y-1628546D01*
X13977340Y-1485290D02*
G01*
X14072844Y-1485290D01*
X14117802Y-1676298D02*
G01*
X14240484Y-1676298D01*
X14285442Y-1485290D02*
G01*
X14285442Y-1628546D01*
X14285442Y-1485290D02*
G01*
X14333194Y-1485290D01*
X14353514Y-1492148D01*
X14367230Y-1505864D01*
X14374088Y-1519326D01*
X14380946Y-1539900D01*
X14380946Y-1573936D01*
X14374088Y-1594256D01*
X14367230Y-1607972D01*
X14353514Y-1621688D01*
X14333194Y-1628546D01*
X14285442Y-1628546D01*
X14466798Y-1485290D02*
G01*
X14453082Y-1492148D01*
X14439620Y-1505864D01*
X14432762Y-1519326D01*
X14425904Y-1539900D01*
X14425904Y-1573936D01*
X14432762Y-1594256D01*
X14439620Y-1607972D01*
X14453082Y-1621688D01*
X14466798Y-1628546D01*
X14493976Y-1628546D01*
X14507692Y-1621688D01*
X14521408Y-1607972D01*
X14528266Y-1594256D01*
X14535124Y-1573936D01*
X14535124Y-1539900D01*
X14528266Y-1519326D01*
X14521408Y-1505864D01*
X14507692Y-1492148D01*
X14493976Y-1485290D01*
X14466798Y-1485290D01*
X14487372Y-1601114D02*
G01*
X14528266Y-1642008D01*
X14000093Y-1230353D02*
G01*
X14000093Y-1373355D01*
X13952341Y-1230353D02*
G01*
X14047845Y-1230353D01*
X14092803Y-1421107D02*
G01*
X14215485Y-1421107D01*
X14260443Y-1230353D02*
G01*
X14260443Y-1373355D01*
X14305401Y-1230353D02*
G01*
X14305401Y-1373355D01*
X14305401Y-1230353D02*
G01*
X14366869Y-1230353D01*
X14387189Y-1237211D01*
X14394047Y-1243815D01*
X14400905Y-1257531D01*
X14400905Y-1271247D01*
X14394047Y-1284709D01*
X14387189Y-1291567D01*
X14366869Y-1298425D01*
X14305401Y-1298425D01*
X14353153Y-1298425D02*
G01*
X14400905Y-1373355D01*
X14486757Y-1230353D02*
G01*
X14473295Y-1237211D01*
X14459579Y-1250673D01*
X14452721Y-1264389D01*
X14445863Y-1284709D01*
X14445863Y-1318999D01*
X14452721Y-1339319D01*
X14459579Y-1353035D01*
X14473295Y-1366751D01*
X14486757Y-1373355D01*
X14514189Y-1373355D01*
X14527651Y-1366751D01*
X14541367Y-1353035D01*
X14548225Y-1339319D01*
X14555083Y-1318999D01*
X14555083Y-1284709D01*
X14548225Y-1264389D01*
X14541367Y-1250673D01*
X14527651Y-1237211D01*
X14514189Y-1230353D01*
X14486757Y-1230353D01*
X14507331Y-1346177D02*
G01*
X14548225Y-1387071D01*
D10*
X18830163Y-3492474D02*
G01*
X18830163Y-3570452D01*
X18835243Y-3585946D01*
X18845656Y-3596360D01*
X18861404Y-3601440D01*
X18871818Y-3601440D01*
X18887313Y-3596360D01*
X18897727Y-3585946D01*
X18902806Y-3570452D01*
X18902806Y-3492474D01*
X18947511Y-3492474D02*
G01*
X19004661Y-3492474D01*
X18973673Y-3534130D01*
X18989166Y-3534130D01*
X18999581Y-3539210D01*
X19004661Y-3544290D01*
X19009995Y-3560038D01*
X19009995Y-3570452D01*
X19004661Y-3585946D01*
X18994247Y-3596360D01*
X18978752Y-3601440D01*
X18963259Y-3601440D01*
X18947511Y-3596360D01*
X18942431Y-3591280D01*
X18937097Y-3580866D01*
X18284063Y-3720566D02*
G01*
X18284063Y-3781018D01*
X18284063Y-3781018D02*
G01*
X18318606Y-3781018D01*
X18337656Y-3720566D02*
G01*
X18337656Y-3781018D01*
X18337656Y-3720566D02*
G01*
X18363818Y-3720566D01*
X18372454Y-3723360D01*
X18375249Y-3726154D01*
X18378043Y-3731996D01*
X18378043Y-3737838D01*
X18375249Y-3743680D01*
X18372454Y-3746474D01*
X18363818Y-3749268D01*
X18337656Y-3749268D01*
X18357977Y-3749268D02*
G01*
X18378043Y-3781018D01*
X18440527Y-3734790D02*
G01*
X18437733Y-3729202D01*
X18431891Y-3723360D01*
X18426049Y-3720566D01*
X18414618Y-3720566D01*
X18408777Y-3723360D01*
X18402934Y-3729202D01*
X18400141Y-3734790D01*
X18397093Y-3743680D01*
X18397093Y-3757904D01*
X18400141Y-3766540D01*
X18402934Y-3772382D01*
X18408777Y-3778224D01*
X18414618Y-3781018D01*
X18426049Y-3781018D01*
X18431891Y-3778224D01*
X18437733Y-3772382D01*
X18440527Y-3766540D01*
X18284068Y-3974569D02*
G01*
X18284068Y-4035021D01*
X18284068Y-3974569D02*
G01*
X18309976Y-3974569D01*
X18318612Y-3977363D01*
X18321660Y-3980157D01*
X18324454Y-3985999D01*
X18324454Y-3991841D01*
X18321660Y-3997683D01*
X18318612Y-4000477D01*
X18309976Y-4003271D01*
X18284068Y-4003271D02*
G01*
X18309976Y-4003271D01*
X18318612Y-4006319D01*
X18321660Y-4009113D01*
X18324454Y-4014955D01*
X18324454Y-4023591D01*
X18321660Y-4029433D01*
X18318612Y-4032227D01*
X18309976Y-4035021D01*
X18284068Y-4035021D01*
X18386938Y-3988793D02*
G01*
X18383890Y-3983205D01*
X18378048Y-3977363D01*
X18372460Y-3974569D01*
X18360776Y-3974569D01*
X18355188Y-3977363D01*
X18349346Y-3983205D01*
X18346298Y-3988793D01*
X18343504Y-3997683D01*
X18343504Y-4011907D01*
X18346298Y-4020543D01*
X18349346Y-4026385D01*
X18355188Y-4032227D01*
X18360776Y-4035021D01*
X18372460Y-4035021D01*
X18378048Y-4032227D01*
X18383890Y-4026385D01*
X18386938Y-4020543D01*
X18405988Y-3974569D02*
G01*
X18405988Y-4035021D01*
X18405988Y-4035021D02*
G01*
X18440532Y-4035021D01*
X18459582Y-3974569D02*
G01*
X18459582Y-4035021D01*
X18499968Y-3974569D02*
G01*
X18459582Y-4014955D01*
X18474060Y-4000477D02*
G01*
X18499968Y-4035021D01*
X18322160Y-4215869D02*
G01*
X18322160Y-4276321D01*
X18322160Y-4215869D02*
G01*
X18342480Y-4215869D01*
X18351116Y-4218663D01*
X18356704Y-4224505D01*
X18359752Y-4230093D01*
X18362546Y-4238983D01*
X18362546Y-4253207D01*
X18359752Y-4261843D01*
X18356704Y-4267685D01*
X18351116Y-4273527D01*
X18342480Y-4276321D01*
X18322160Y-4276321D01*
X18381596Y-4215869D02*
G01*
X18381596Y-4276321D01*
X18400646Y-4215869D02*
G01*
X18400646Y-4276321D01*
X18400646Y-4215869D02*
G01*
X18441032Y-4276321D01*
X18441032Y-4215869D02*
G01*
X18441032Y-4276321D01*
X18339948Y-4496793D02*
G01*
X18337154Y-4491205D01*
X18331312Y-4485363D01*
X18325724Y-4482569D01*
X18314040Y-4482569D01*
X18308198Y-4485363D01*
X18302610Y-4491205D01*
X18299562Y-4496793D01*
X18296768Y-4505683D01*
X18296768Y-4519907D01*
X18299562Y-4528543D01*
X18302610Y-4534385D01*
X18308198Y-4540227D01*
X18314040Y-4543021D01*
X18325724Y-4543021D01*
X18331312Y-4540227D01*
X18337154Y-4534385D01*
X18339948Y-4528543D01*
X18339948Y-4519907D01*
X18325724Y-4519907D02*
G01*
X18339948Y-4519907D01*
X18382112Y-4482569D02*
G01*
X18358998Y-4543021D01*
X18382112Y-4482569D02*
G01*
X18405226Y-4543021D01*
X18367888Y-4522955D02*
G01*
X18396590Y-4522955D01*
X18424276Y-4482569D02*
G01*
X18424276Y-4543021D01*
X18443326Y-4482569D02*
G01*
X18443326Y-4543021D01*
X18443326Y-4482569D02*
G01*
X18483712Y-4543021D01*
X18483712Y-4482569D02*
G01*
X18483712Y-4543021D01*
X18349851Y-4732505D02*
G01*
X18344009Y-4726663D01*
X18335373Y-4723869D01*
X18323943Y-4723869D01*
X18315307Y-4726663D01*
X18309465Y-4732505D01*
X18309465Y-4738093D01*
X18312259Y-4743935D01*
X18315307Y-4746983D01*
X18320895Y-4749777D01*
X18338421Y-4755619D01*
X18344009Y-4758413D01*
X18347057Y-4761207D01*
X18349851Y-4767049D01*
X18349851Y-4775685D01*
X18344009Y-4781527D01*
X18335373Y-4784321D01*
X18323943Y-4784321D01*
X18315307Y-4781527D01*
X18309465Y-4775685D01*
X18368901Y-4723869D02*
G01*
X18368901Y-4784321D01*
X18368901Y-4723869D02*
G01*
X18389221Y-4723869D01*
X18397857Y-4726663D01*
X18403445Y-4732505D01*
X18406493Y-4738093D01*
X18409287Y-4746983D01*
X18409287Y-4761207D01*
X18406493Y-4769843D01*
X18403445Y-4775685D01*
X18397857Y-4781527D01*
X18389221Y-4784321D01*
X18368901Y-4784321D01*
X18339940Y-4992093D02*
G01*
X18337146Y-4986505D01*
X18331304Y-4980663D01*
X18325716Y-4977869D01*
X18314032Y-4977869D01*
X18308190Y-4980663D01*
X18302602Y-4986505D01*
X18299554Y-4992093D01*
X18296760Y-5000983D01*
X18296760Y-5015207D01*
X18299554Y-5023843D01*
X18302602Y-5029685D01*
X18308190Y-5035527D01*
X18314032Y-5038321D01*
X18325716Y-5038321D01*
X18331304Y-5035527D01*
X18337146Y-5029685D01*
X18339940Y-5023843D01*
X18339940Y-5015207D01*
X18325716Y-5015207D02*
G01*
X18339940Y-5015207D01*
X18358990Y-4977869D02*
G01*
X18358990Y-5038321D01*
X18358990Y-4977869D02*
G01*
X18399630Y-5038321D01*
X18399630Y-4977869D02*
G01*
X18399630Y-5038321D01*
X18418680Y-4977869D02*
G01*
X18418680Y-5038321D01*
X18418680Y-4977869D02*
G01*
X18438746Y-4977869D01*
X18447382Y-4980663D01*
X18453224Y-4986505D01*
X18456018Y-4992093D01*
X18459066Y-5000983D01*
X18459066Y-5015207D01*
X18456018Y-5023843D01*
X18453224Y-5029685D01*
X18447382Y-5035527D01*
X18438746Y-5038321D01*
X18418680Y-5038321D01*
X18309463Y-5244566D02*
G01*
X18332577Y-5305018D01*
X18355691Y-5244566D02*
G01*
X18332577Y-5305018D01*
X18374741Y-5244566D02*
G01*
X18377534Y-5247360D01*
X18380583Y-5244566D01*
X18377534Y-5241518D01*
X18374741Y-5244566D01*
X18377534Y-5264632D02*
G01*
X18377534Y-5305018D01*
X18399633Y-5264632D02*
G01*
X18399633Y-5305018D01*
X18399633Y-5276316D02*
G01*
X18408268Y-5267680D01*
X18413856Y-5264632D01*
X18422493Y-5264632D01*
X18428334Y-5267680D01*
X18431383Y-5276316D01*
X18431383Y-5305018D01*
X1330197Y-3492474D02*
G01*
X1330197Y-3570452D01*
X1335278Y-3585946D01*
X1345692Y-3596360D01*
X1361439Y-3601440D01*
X1371854Y-3601440D01*
X1387347Y-3596360D01*
X1397762Y-3585946D01*
X1402842Y-3570452D01*
X1402842Y-3492474D01*
X1499615Y-3492474D02*
G01*
X1447545Y-3492474D01*
X1442465Y-3539210D01*
X1447545Y-3534130D01*
X1463294Y-3528796D01*
X1478787Y-3528796D01*
X1494281Y-3534130D01*
X1504695Y-3544290D01*
X1510029Y-3560038D01*
X1510029Y-3570452D01*
X1504695Y-3585946D01*
X1494281Y-3596360D01*
X1478787Y-3601440D01*
X1463294Y-3601440D01*
X1447545Y-3596360D01*
X1442465Y-3591280D01*
X1437131Y-3580866D01*
X784097Y-3720566D02*
G01*
X784097Y-3781018D01*
X784097Y-3781018D02*
G01*
X818642Y-3781018D01*
X837692Y-3720566D02*
G01*
X837692Y-3781018D01*
X837692Y-3720566D02*
G01*
X863854Y-3720566D01*
X872489Y-3723360D01*
X875284Y-3726154D01*
X878078Y-3731996D01*
X878078Y-3737838D01*
X875284Y-3743680D01*
X872489Y-3746474D01*
X863854Y-3749268D01*
X837692Y-3749268D01*
X858012Y-3749268D02*
G01*
X878078Y-3781018D01*
X940562Y-3734790D02*
G01*
X937768Y-3729202D01*
X931926Y-3723360D01*
X926084Y-3720566D01*
X914654Y-3720566D01*
X908812Y-3723360D01*
X902970Y-3729202D01*
X900176Y-3734790D01*
X897128Y-3743680D01*
X897128Y-3757904D01*
X900176Y-3766540D01*
X902970Y-3772382D01*
X908812Y-3778224D01*
X914654Y-3781018D01*
X926084Y-3781018D01*
X931926Y-3778224D01*
X937768Y-3772382D01*
X940562Y-3766540D01*
X784103Y-3974569D02*
G01*
X784103Y-4035021D01*
X784103Y-3974569D02*
G01*
X810011Y-3974569D01*
X818647Y-3977363D01*
X821695Y-3980157D01*
X824489Y-3985999D01*
X824489Y-3991841D01*
X821695Y-3997683D01*
X818647Y-4000477D01*
X810011Y-4003271D01*
X784103Y-4003271D02*
G01*
X810011Y-4003271D01*
X818647Y-4006319D01*
X821695Y-4009113D01*
X824489Y-4014955D01*
X824489Y-4023591D01*
X821695Y-4029433D01*
X818647Y-4032227D01*
X810011Y-4035021D01*
X784103Y-4035021D01*
X886973Y-3988793D02*
G01*
X883925Y-3983205D01*
X878083Y-3977363D01*
X872495Y-3974569D01*
X860811Y-3974569D01*
X855223Y-3977363D01*
X849381Y-3983205D01*
X846333Y-3988793D01*
X843539Y-3997683D01*
X843539Y-4011907D01*
X846333Y-4020543D01*
X849381Y-4026385D01*
X855223Y-4032227D01*
X860811Y-4035021D01*
X872495Y-4035021D01*
X878083Y-4032227D01*
X883925Y-4026385D01*
X886973Y-4020543D01*
X906023Y-3974569D02*
G01*
X906023Y-4035021D01*
X906023Y-4035021D02*
G01*
X940567Y-4035021D01*
X959617Y-3974569D02*
G01*
X959617Y-4035021D01*
X1000003Y-3974569D02*
G01*
X959617Y-4014955D01*
X974095Y-4000477D02*
G01*
X1000003Y-4035021D01*
X822195Y-4215869D02*
G01*
X822195Y-4276321D01*
X822195Y-4215869D02*
G01*
X842515Y-4215869D01*
X851151Y-4218663D01*
X856739Y-4224505D01*
X859787Y-4230093D01*
X862581Y-4238983D01*
X862581Y-4253207D01*
X859787Y-4261843D01*
X856739Y-4267685D01*
X851151Y-4273527D01*
X842515Y-4276321D01*
X822195Y-4276321D01*
X881631Y-4215869D02*
G01*
X881631Y-4276321D01*
X900681Y-4215869D02*
G01*
X900681Y-4276321D01*
X900681Y-4215869D02*
G01*
X941067Y-4276321D01*
X941067Y-4215869D02*
G01*
X941067Y-4276321D01*
X839983Y-4496793D02*
G01*
X837189Y-4491205D01*
X831347Y-4485363D01*
X825759Y-4482569D01*
X814075Y-4482569D01*
X808233Y-4485363D01*
X802645Y-4491205D01*
X799597Y-4496793D01*
X796803Y-4505683D01*
X796803Y-4519907D01*
X799597Y-4528543D01*
X802645Y-4534385D01*
X808233Y-4540227D01*
X814075Y-4543021D01*
X825759Y-4543021D01*
X831347Y-4540227D01*
X837189Y-4534385D01*
X839983Y-4528543D01*
X839983Y-4519907D01*
X825759Y-4519907D02*
G01*
X839983Y-4519907D01*
X882147Y-4482569D02*
G01*
X859033Y-4543021D01*
X882147Y-4482569D02*
G01*
X905261Y-4543021D01*
X867923Y-4522955D02*
G01*
X896625Y-4522955D01*
X924311Y-4482569D02*
G01*
X924311Y-4543021D01*
X943361Y-4482569D02*
G01*
X943361Y-4543021D01*
X943361Y-4482569D02*
G01*
X983747Y-4543021D01*
X983747Y-4482569D02*
G01*
X983747Y-4543021D01*
X849886Y-4732505D02*
G01*
X844044Y-4726663D01*
X835408Y-4723869D01*
X823978Y-4723869D01*
X815342Y-4726663D01*
X809500Y-4732505D01*
X809500Y-4738093D01*
X812294Y-4743935D01*
X815342Y-4746983D01*
X820930Y-4749777D01*
X838456Y-4755619D01*
X844044Y-4758413D01*
X847092Y-4761207D01*
X849886Y-4767049D01*
X849886Y-4775685D01*
X844044Y-4781527D01*
X835408Y-4784321D01*
X823978Y-4784321D01*
X815342Y-4781527D01*
X809500Y-4775685D01*
X868936Y-4723869D02*
G01*
X868936Y-4784321D01*
X868936Y-4723869D02*
G01*
X889256Y-4723869D01*
X897892Y-4726663D01*
X903480Y-4732505D01*
X906528Y-4738093D01*
X909322Y-4746983D01*
X909322Y-4761207D01*
X906528Y-4769843D01*
X903480Y-4775685D01*
X897892Y-4781527D01*
X889256Y-4784321D01*
X868936Y-4784321D01*
X839975Y-4992093D02*
G01*
X837181Y-4986505D01*
X831339Y-4980663D01*
X825751Y-4977869D01*
X814067Y-4977869D01*
X808225Y-4980663D01*
X802637Y-4986505D01*
X799589Y-4992093D01*
X796795Y-5000983D01*
X796795Y-5015207D01*
X799589Y-5023843D01*
X802637Y-5029685D01*
X808225Y-5035527D01*
X814067Y-5038321D01*
X825751Y-5038321D01*
X831339Y-5035527D01*
X837181Y-5029685D01*
X839975Y-5023843D01*
X839975Y-5015207D01*
X825751Y-5015207D02*
G01*
X839975Y-5015207D01*
X859025Y-4977869D02*
G01*
X859025Y-5038321D01*
X859025Y-4977869D02*
G01*
X899665Y-5038321D01*
X899665Y-4977869D02*
G01*
X899665Y-5038321D01*
X918715Y-4977869D02*
G01*
X918715Y-5038321D01*
X918715Y-4977869D02*
G01*
X938781Y-4977869D01*
X947417Y-4980663D01*
X953259Y-4986505D01*
X956053Y-4992093D01*
X959101Y-5000983D01*
X959101Y-5015207D01*
X956053Y-5023843D01*
X953259Y-5029685D01*
X947417Y-5035527D01*
X938781Y-5038321D01*
X918715Y-5038321D01*
X809497Y-5244566D02*
G01*
X832612Y-5305018D01*
X855726Y-5244566D02*
G01*
X832612Y-5305018D01*
X874776Y-5244566D02*
G01*
X877570Y-5247360D01*
X880618Y-5244566D01*
X877570Y-5241518D01*
X874776Y-5244566D01*
X877570Y-5264632D02*
G01*
X877570Y-5305018D01*
X899668Y-5264632D02*
G01*
X899668Y-5305018D01*
X899668Y-5276316D02*
G01*
X908304Y-5267680D01*
X913892Y-5264632D01*
X922528Y-5264632D01*
X928370Y-5267680D01*
X931418Y-5276316D01*
X931418Y-5305018D01*
X6159500Y-8139684D02*
G01*
X6159500Y-8217662D01*
X6164579Y-8233155D01*
X6174993Y-8243570D01*
X6190741Y-8248650D01*
X6201156Y-8248650D01*
X6216650Y-8243570D01*
X6227063Y-8233155D01*
X6232143Y-8217662D01*
X6232143Y-8139684D01*
X6318504Y-8139684D02*
G01*
X6266434Y-8212328D01*
X6344411Y-8212328D01*
X6318504Y-8139684D02*
G01*
X6318504Y-8248650D01*
D15*
X5187490Y-8449983D02*
G01*
X5187490Y-8949982D01*
X4552490Y-8449983D02*
G01*
X4552490Y-8949982D01*
X5187490Y-8449983D02*
G01*
X4552490Y-8449983D01*
X5761990Y-8969984D02*
G01*
X3983990Y-8969984D01*
X3983990Y-6683984D01*
X5761990Y-6683984D01*
X5761990Y-8969984D01*
X15699968Y-2699994D02*
G01*
X16299967Y-2699994D01*
X16299967Y-3299993D01*
X15699968Y-3299993D01*
X15699968Y-2699994D01*
X16699966Y-1699996D02*
G01*
X17299965Y-1699996D01*
X17299965Y-2299995D01*
X16699966Y-2299995D01*
X16699966Y-1699996D01*
X17699964Y-2699994D02*
G01*
X18299963Y-2699994D01*
X18299963Y-3299993D01*
X17699964Y-3299993D01*
X17699964Y-2699994D01*
X16699966Y-3699992D02*
G01*
X17299965Y-3699992D01*
X17299965Y-4299991D01*
X16699966Y-4299991D01*
X16699966Y-3699992D01*
X2699994Y-3699992D02*
G01*
X3299993Y-3699992D01*
X3299993Y-4299991D01*
X2699994Y-4299991D01*
X2699994Y-3699992D01*
X3699992Y-2699994D02*
G01*
X4299991Y-2699994D01*
X4299991Y-3299993D01*
X3699992Y-3299993D01*
X3699992Y-2699994D01*
X2699994Y-1699996D02*
G01*
X3299993Y-1699996D01*
X3299993Y-2299995D01*
X2699994Y-2299995D01*
X2699994Y-1699996D01*
X1699996Y-2699994D02*
G01*
X2299995Y-2699994D01*
X2299995Y-3299993D01*
X1699996Y-3299993D01*
X1699996Y-2699994D01*
D16*
X16065372Y-7474585D02*
G01*
X16065372Y-5950585D01*
X13525372Y-5950585D01*
X13525372Y-7474585D01*
X16065372Y-7474585D01*
D15*
X17187151Y-7122185D02*
G01*
X17288751Y-7122185D01*
X18698451Y-7122185D02*
G01*
X18800051Y-7122185D01*
X18749251Y-7172985D02*
G01*
X18749251Y-7071385D01*
X1187183Y-7122185D02*
G01*
X1288783Y-7122185D01*
X2698483Y-7122185D02*
G01*
X2800083Y-7122185D01*
X2749283Y-7172985D02*
G01*
X2749283Y-7071385D01*
X6749986Y-5849988D02*
G01*
X13249968Y-5849988D01*
X13249968Y-8849979D01*
X6749986Y-8849979D02*
G01*
X6749986Y-5849988D01*
X13249968Y-8849979D02*
G01*
X6749986Y-8849979D01*
X14877470Y-4755799D02*
G01*
X14877470Y-1149799D01*
X14627476Y-4476803D02*
G01*
X14877470Y-4476803D01*
X14627476Y-4755799D02*
G01*
X14877470Y-4755799D01*
X14627476Y-1149799D02*
G01*
X14627476Y-4755799D01*
X14877470Y-1149799D02*
G01*
X14627476Y-1149799D01*
D17*
X19198257Y-4292015D02*
G01*
X19198257Y-4371390D01*
X19238343Y-4700015D02*
G01*
X19158991Y-4700015D01*
X19198668Y-4739690D02*
G01*
X19198668Y-4660315D01*
D15*
X19528663Y-5411190D02*
G01*
X18131663Y-5411190D01*
D14*
X19647049Y-4862195D02*
G01*
X19647049Y-4162193D01*
X19087058Y-4862195D02*
G01*
X19647049Y-4862195D01*
X19787059Y-4862195D01*
X19787059Y-4162193D01*
X19647049Y-4162193D01*
X19087058Y-4162193D01*
X19087058Y-4862195D01*
D15*
X19782663Y-3887190D02*
G01*
X19782663Y-5157190D01*
X18131663Y-3633190D02*
G01*
X19528663Y-3633190D01*
X17877663Y-5157190D02*
G01*
X17877663Y-3887190D01*
D17*
X1698292Y-4292015D02*
G01*
X1698292Y-4371390D01*
X1738378Y-4700015D02*
G01*
X1659026Y-4700015D01*
X1698703Y-4739690D02*
G01*
X1698703Y-4660315D01*
D15*
X2028697Y-5411190D02*
G01*
X631697Y-5411190D01*
D14*
X2147084Y-4862195D02*
G01*
X2147084Y-4162193D01*
X1587093Y-4862195D02*
G01*
X2147084Y-4862195D01*
X2287094Y-4862195D01*
X2287094Y-4162193D01*
X2147084Y-4162193D01*
X1587093Y-4162193D01*
X1587093Y-4862195D01*
D15*
X2282697Y-3887190D02*
G01*
X2282697Y-5157190D01*
X631697Y-3633190D02*
G01*
X2028697Y-3633190D01*
X377697Y-5157190D02*
G01*
X377697Y-3887190D01*
D18*
X6093754Y-8304753D02*
G01*
X6273749Y-8304753D01*
X6093599Y-8664953D02*
G01*
X6273601Y-8664953D01*
D15*
G75*
G01*
X18131663Y-5411191D02*
G02*
X17877663Y-5157191I0J254000D01*
G75*
G01*
X17877663Y-3887191D02*
G02*
X18131663Y-3633191I254000J0D01*
G75*
G01*
X19528663Y-3633191D02*
G02*
X19782663Y-3887191I0J-254000D01*
G75*
G01*
X19782663Y-5157191D02*
G02*
X19528663Y-5411191I-254000J0D01*
D14*
G75*
G01*
X19198666Y-4778172D02*
G03*
X19198260Y-4778172I-203J78181D01*
G75*
G01*
X19198260Y-4253509D02*
G03*
X19198666Y-4253509I203J-78181D01*
D15*
G75*
G01*
X631698Y-5411191D02*
G02*
X377698Y-5157191I0J254000D01*
G75*
G01*
X377698Y-3887191D02*
G02*
X631698Y-3633191I254000J0D01*
G75*
G01*
X2028698Y-3633191D02*
G02*
X2282698Y-3887191I0J-254000D01*
G75*
G01*
X2282698Y-5157191D02*
G02*
X2028698Y-5411191I-254000J0D01*
D14*
G75*
G01*
X1698701Y-4778172D02*
G03*
X1698295Y-4778172I-203J78181D01*
G75*
G01*
X1698295Y-4253509D02*
G03*
X1698701Y-4253509I203J-78181D01*
D15*
G75*
G01
X16152901Y-2999994D02*
G03X16152901Y-2999994I-152933J0D01*
G75*
G01
X16253968Y-3203194D02*
G03X16253968Y-3203194I-50800J0D01*
G75*
G01
X15847568Y-3203194D02*
G03X15847568Y-3203194I-50800J0D01*
G75*
G01
X16253968Y-2796794D02*
G03X16253968Y-2796794I-50800J0D01*
G75*
G01
X15847771Y-2796946D02*
G03X15847771Y-2796946I-50800J0D01*
G75*
G01
X17152899Y-1999996D02*
G03X17152899Y-1999996I-152933J0D01*
G75*
G01
X17253966Y-2203196D02*
G03X17253966Y-2203196I-50800J0D01*
G75*
G01
X16847566Y-2203196D02*
G03X16847566Y-2203196I-50800J0D01*
G75*
G01
X17253966Y-1796796D02*
G03X17253966Y-1796796I-50800J0D01*
G75*
G01
X16847769Y-1796948D02*
G03X16847769Y-1796948I-50800J0D01*
G75*
G01
X18152897Y-2999994D02*
G03X18152897Y-2999994I-152933J0D01*
G75*
G01
X18253964Y-3203194D02*
G03X18253964Y-3203194I-50800J0D01*
G75*
G01
X17847564Y-3203194D02*
G03X17847564Y-3203194I-50800J0D01*
G75*
G01
X18253964Y-2796794D02*
G03X18253964Y-2796794I-50800J0D01*
G75*
G01
X17847767Y-2796946D02*
G03X17847767Y-2796946I-50800J0D01*
G75*
G01
X17152899Y-3999992D02*
G03X17152899Y-3999992I-152933J0D01*
G75*
G01
X17253966Y-4203192D02*
G03X17253966Y-4203192I-50800J0D01*
G75*
G01
X16847566Y-4203192D02*
G03X16847566Y-4203192I-50800J0D01*
G75*
G01
X17253966Y-3796792D02*
G03X17253966Y-3796792I-50800J0D01*
G75*
G01
X16847769Y-3796944D02*
G03X16847769Y-3796944I-50800J0D01*
G75*
G01
X3152927Y-3999992D02*
G03X3152927Y-3999992I-152933J0D01*
G75*
G01
X3253994Y-4203192D02*
G03X3253994Y-4203192I-50800J0D01*
G75*
G01
X2847594Y-4203192D02*
G03X2847594Y-4203192I-50800J0D01*
G75*
G01
X3253994Y-3796792D02*
G03X3253994Y-3796792I-50800J0D01*
G75*
G01
X2847797Y-3796944D02*
G03X2847797Y-3796944I-50800J0D01*
G75*
G01
X4152925Y-2999994D02*
G03X4152925Y-2999994I-152933J0D01*
G75*
G01
X4253992Y-3203194D02*
G03X4253992Y-3203194I-50800J0D01*
G75*
G01
X3847592Y-3203194D02*
G03X3847592Y-3203194I-50800J0D01*
G75*
G01
X4253992Y-2796794D02*
G03X4253992Y-2796794I-50800J0D01*
G75*
G01
X3847795Y-2796946D02*
G03X3847795Y-2796946I-50800J0D01*
G75*
G01
X3152927Y-1999996D02*
G03X3152927Y-1999996I-152933J0D01*
G75*
G01
X3253994Y-2203196D02*
G03X3253994Y-2203196I-50800J0D01*
G75*
G01
X2847594Y-2203196D02*
G03X2847594Y-2203196I-50800J0D01*
G75*
G01
X3253994Y-1796796D02*
G03X3253994Y-1796796I-50800J0D01*
G75*
G01
X2847797Y-1796948D02*
G03X2847797Y-1796948I-50800J0D01*
G75*
G01
X2152929Y-2999994D02*
G03X2152929Y-2999994I-152933J0D01*
G75*
G01
X2253996Y-3203194D02*
G03X2253996Y-3203194I-50800J0D01*
G75*
G01
X1847596Y-3203194D02*
G03X1847596Y-3203194I-50800J0D01*
G75*
G01
X2253996Y-2796794D02*
G03X2253996Y-2796794I-50800J0D01*
G75*
G01
X1847799Y-2796946D02*
G03X1847799Y-2796946I-50800J0D01*
G75*
G01
X15399969Y-8528990D02*
G03X15399969Y-8528990I-399999J0D01*
G75*
G01
X19494957Y-7299985D02*
G03X19494957Y-7299985I-1494993J0D01*
G75*
G01
X3494964Y-7299985D02*
G03X3494964Y-7299985I-1494993J0D01*
D18*
G75*
G01
X6057392Y-8313598D02*
G03X6057392Y-8313598I-12497J0D01*
M02*
